PathFileType	4	(X/Y/Z)	./resultDataOpenSim/trcMotMarkerGrf/sub10/qtm-03-07.trc
DataRate	CameraRate	NumFrames	NumMarkers	Units	OrigDataRate	OrigDataStartFrame	OrigNumFrames
250.000000	250.000000	10	24	m	250.000000	259	517
Frame#	Time	L.Toe.Tip			R.Toe.Tip			L.Ankle.Lat			R.Ankle.Lat			L.Ankle.Med			R.Ankle.Med			L.Heel			R.Heel			L.Knee.Lat			R.Knee.Lat			L.Knee.Med			R.Knee.Med			L.Thigh.Upper			R.Thigh.Upper			L.ASIS			R.ASIS			V.Sacral			L.Acromium			R.Acromium			C7			L.Elbow			R.Elbow			L.Wrist.Lat			R.Wrist.Lat
		X1	Y1	Z1	X2	Y2	Z2	X3	Y3	Z3	X4	Y4	Z4	X5	Y5	Z5	X6	Y6	Z6	X7	Y7	Z7	X8	Y8	Z8	X9	Y9	Z9	X10	Y10	Z10	X11	Y11	Z11	X12	Y12	Z12	X13	Y13	Z13	X14	Y14	Z14	X15	Y15	Z15	X16	Y16	Z16	X17	Y17	Z17	X18	Y18	Z18	X19	Y19	Z19	X20	Y20	Z20	X21	Y21	Z21	X22	Y22	Z22	X23	Y23	Z23	X24	Y24	Z24

259	1.032	0.032614728	-0.0079482793	-0.072367328	0.017565078	0.082136795	0.086396694	-0.10056215	0.026571797	-0.10774207	-0.090480894	0.17582629	0.072437874	-0.096648397	0.051163437	-0.02609149	-0.031867901	0.17309101	0.0048605859	-0.16801961	0.003558276	-0.065714661	-0.12973655	0.17124181	0.011401651	-0.016149076	0.40617297	-0.14603611	0.1560554	0.4631819	0.12981887	-0.021546672	0.38669935	-0.023616101	0.21294926	0.46727775	0.0079082776	0.017482047	0.80038063	-0.20915465	-0.024045383	0.81995456	0.16616648	0.071602857	0.90718871	-0.13919462	0.053854526	0.91762744	0.10080638	-0.13538556	0.93255294	-0.03394282	0.02470709	1.3804037	-0.19013709	-0.017488374	1.3935369	0.12846762	-0.077088968	1.41251	-0.04869591	-0.046717474	1.0440444	-0.24506157	-0.091232026	1.0502419	0.15593154	0.13140387	0.86110536	-0.26047167	0.017396785	0.84700318	0.23440264
260	1.036	0.032573917	-0.0079460607	-0.072412306	0.036860755	0.080707662	0.086808582	-0.10044352	0.027096138	-0.10787144	-0.074029652	0.17083024	0.072149298	-0.096375412	0.051771732	-0.026241439	-0.015302147	0.16953484	0.0046631089	-0.16788254	0.0042828101	-0.065708199	-0.11325631	0.16488108	0.010954451	-0.015811503	0.40662829	-0.14658635	0.16495764	0.46556989	0.12983268	-0.020486574	0.38720989	-0.02433542	0.22159732	0.47066038	0.0082854244	0.020845155	0.80068536	-0.20942868	-0.017774368	0.82128338	0.16645047	0.075565605	0.90744833	-0.13989683	0.059218966	0.91840114	0.099975382	-0.13052358	0.93327466	-0.033364267	0.029858704	1.3810722	-0.19014001	-0.012281431	1.3939557	0.1285112	-0.071775869	1.4131439	-0.048671746	-0.0395475	1.0441887	-0.24535516	-0.088597204	1.0512117	0.15583616	0.14124097	0.86338366	-0.25883238	0.018530494	0.84725226	0.23490591
261	1.04	0.03252719	-0.0079513531	-0.072451774	0.056182577	0.079348016	0.087272818	-0.10032841	0.02760519	-0.10799065	-0.05739284	0.16583447	0.071864225	-0.096164831	0.05235887	-0.026415668	0.0014732717	0.16598329	0.0044874989	-0.16777009	0.0050271663	-0.06571329	-0.096420423	0.1584929	0.010539052	-0.015388856	0.40707498	-0.14711711	0.17374094	0.46784708	0.12986737	-0.019361551	0.38766433	-0.025048575	0.23006668	0.47390455	0.0086916134	0.024242903	0.80098021	-0.20969198	-0.011472451	0.82254808	0.16674593	0.079524102	0.90766867	-0.14059841	0.064523008	0.91908976	0.099126934	-0.12578721	0.93393202	-0.032719675	0.035016601	1.3816731	-0.19014433	-0.0070475683	1.3943009	0.12855597	-0.066462723	1.4137148	-0.048640175	-0.032371921	1.0442782	-0.24561968	-0.08597611	1.0521146	0.15575482	0.15103482	0.86564718	-0.25719295	0.019702209	0.84747746	0.23540917
262	1.044	0.032519396	-0.0079340617	-0.07250539	0.075531986	0.078056348	0.087782963	-0.10022176	0.028093571	-0.1080837	-0.040599293	0.16085904	0.071623133	-0.096025908	0.052924707	-0.026612823	0.018478968	0.16248035	0.0043570474	-0.16766009	0.005749714	-0.065716789	-0.079110516	0.1520892	0.01010631	-0.014868606	0.40751973	-0.14762703	0.18238248	0.469993	0.12992178	-0.018422469	0.3880662	-0.02561703	0.23837084	0.47699933	0.0091148601	0.027683941	0.80126306	-0.20990647	-0.0051675787	0.82373351	0.1670459	0.083465648	0.90784929	-0.14130815	0.069835516	0.91970761	0.098303179	-0.12116726	0.93450995	-0.032016404	0.040180559	1.3822129	-0.1901511	-0.0017912423	1.3945734	0.12860452	-0.061145982	1.4142187	-0.048590719	-0.02516393	1.0443074	-0.24588406	-0.083248387	1.0529368	0.15561078	0.1607827	0.86789085	-0.25555073	0.020908416	0.84767781	0.23590555
263	1.048	0.03256112	-0.0078878672	-0.072577838	0.094915236	0.076824675	0.088336348	-0.10012655	0.02855163	-0.10813881	-0.023717739	0.15591711	0.071485066	-0.095945877	0.053471263	-0.026833057	0.035651552	0.15903155	0.0042747256	-0.1675741	0.0064459173	-0.065692386	-0.061223425	0.14566591	0.0095670942	-0.014270122	0.40795851	-0.14811377	0.19086745	0.47199029	0.12999987	-0.017732514	0.38843048	-0.026003073	0.24652244	0.47993649	0.0095393287	0.031044077	0.8015161	-0.21011037	0.0010757819	0.82481733	0.16732798	0.08735666	0.90798798	-0.14204391	0.075217128	0.92026382	0.097550409	-0.11663382	0.93498037	-0.031329344	0.045337774	1.3826938	-0.19016206	0.0034782726	1.3947726	0.12865931	-0.055824723	1.414656	-0.048522074	-0.017919638	1.0442769	-0.24615916	-0.080415514	1.053681	0.15537054	0.17048486	0.87010954	-0.25389887	0.02214405	0.84785419	0.23639125
264	1.052	0.032623518	-0.0078344778	-0.072663991	0.11434081	0.075657001	0.088935461	-0.10004133	0.028975633	-0.10816161	-0.0067952049	0.1510074	0.071468567	-0.09586235	0.053997186	-0.027060937	0.05294052	0.15562841	0.0042450756	-0.16756135	0.0071486264	-0.065616608	-0.042859087	0.13924023	0.008921827	-0.013627054	0.40838671	-0.14858529	0.19920174	0.47382829	0.13010544	-0.017157943	0.38874848	-0.02627357	0.25452809	0.48271099	0.0099552143	0.03419248	0.80172311	-0.21036289	0.0071787219	0.82577975	0.16755884	0.091184293	0.90808116	-0.14281517	0.080682268	0.92076011	0.096885782	-0.11216934	0.93532373	-0.030721717	0.050477445	1.3831121	-0.19017726	0.0087567175	1.3948972	0.12871775	-0.050501853	1.415032	-0.04844195	-0.010716033	1.0442073	-0.24639142	-0.077541757	1.0543543	0.15502852	0.18014355	0.87230012	-0.25223145	0.023402369	0.8480045	0.23686404
265	1.056	0.032689283	-0.0077911659	-0.072765955	0.13381842	0.074561628	0.089577112	-0.099970117	0.029375911	-0.10816383	0.010205475	0.14609333	0.071467043	-0.095720772	0.054508383	-0.027264261	0.070332265	0.15224922	0.0042607641	-0.16764514	0.0078869775	-0.065490125	-0.024299382	0.13286655	0.0082869581	-0.012947555	0.40881225	-0.1490654	0.20740298	0.4755027	0.13023138	-0.01649204	0.38898754	-0.026523965	0.26238679	0.48531969	0.010360461	0.037100914	0.80188038	-0.21070051	0.013133741	0.82662429	0.16772924	0.095016446	0.90813888	-0.1435957	0.086204725	0.92119096	0.096293272	-0.10774637	0.9355415	-0.030171165	0.055605075	1.38346	-0.19019379	0.014046973	1.3949452	0.12877442	-0.045182704	1.4153506	-0.048356259	-0.0037164788	1.0441369	-0.24646882	-0.074683224	1.0549648	0.15461949	0.18975672	0.8744619	-0.25055089	0.024680898	0.84812539	0.23732359
266	1.06	0.032760023	-0.0077626697	-0.072884054	0.15336086	0.073541712	0.090253556	-0.099949183	0.029770433	-0.10811988	0.027396417	0.14112628	0.071288736	-0.095529163	0.055018901	-0.027398114	0.087828778	0.14887518	0.0043279881	-0.16777916	0.0086386397	-0.065343401	-0.005733299	0.12660098	0.0077255345	-0.012227202	0.40924368	-0.14956539	0.21548391	0.47701607	0.13036462	-0.015665905	0.38913499	-0.026770374	0.27009276	0.48775914	0.010751759	0.039886808	0.80199605	-0.21109147	0.019091234	0.82740064	0.16789474	0.098987458	0.90819141	-0.14431924	0.091753969	0.92154651	0.095749029	-0.10328155	0.93565125	-0.029514766	0.060733051	1.3837353	-0.19021001	0.019352579	1.3949123	0.1288274	-0.0398738	1.4156093	-0.048256336	0.0028941742	1.0441063	-0.24627877	-0.071855795	1.0555242	0.15422573	0.19932067	0.87659398	-0.24886549	0.025988109	0.84821785	0.23777227
267	1.064	0.032819835	-0.0077551104	-0.072992954	0.17297725	0.072599701	0.090967409	-0.10004075	0.0301734	-0.10796078	0.04485522	0.13611328	0.070874677	-0.095323343	0.055533844	-0.027432694	0.10543548	0.14551048	0.0044772732	-0.16787989	0.0093394861	-0.065210605	0.012881495	0.12047389	0.0071506798	-0.011524987	0.40965972	-0.15002854	0.22344247	0.47837869	0.13049359	-0.014797023	0.38921508	-0.026942668	0.27764017	0.49002449	0.011122016	0.042745549	0.80208174	-0.21143164	0.02529533	0.82818468	0.16815068	0.10316763	0.90826052	-0.14493513	0.097316373	0.92181799	0.095239344	-0.098663172	0.93566771	-0.028585739	0.065864186	1.3839457	-0.19022884	0.024672802	1.3947962	0.12887768	-0.034579969	1.4158011	-0.048120491	0.0089935334	1.0441414	-0.24576142	-0.069041837	1.0560413	0.15391808	0.20883937	0.878694	-0.24717581	0.027346526	0.84828789	0.23821318
268	1.068	0.03283382	-0.0077729967	-0.073056917	0.19264747	0.071752549	0.091740014	-0.10024942	0.030585063	-0.10766478	0.062541473	0.13113005	0.07042574	-0.095110385	0.056038432	-0.027395699	0.12316689	0.14218867	0.0047248188	-0.16790378	0.0099457371	-0.065098127	0.03164998	0.1144941	0.0065036407	-0.011003473	0.41000323	-0.15031238	0.23126296	0.47960512	0.130605	-0.013999077	0.38925794	-0.027003461	0.28502661	0.49210927	0.0114671	0.045749628	0.80213661	-0.2116665	0.031818536	0.82899295	0.16852194	0.1074579	0.90832319	-0.14547894	0.10289022	0.92200227	0.094760389	-0.093830451	0.93559748	-0.027397225	0.070987515	1.3840982	-0.19025514	0.030001233	1.3946045	0.12892602	-0.029298941	1.415919	-0.047935234	0.014576972	1.0442414	-0.24492993	-0.066212898	1.0565148	0.15369374	0.21832683	0.88075901	-0.24546857	0.028789547	0.84834133	0.23865034
